PathFileType	4	(X/Y/Z)	C:\Users\WrightLab\Desktop\Jo\P5V120.trc
DataRate	CameraRate	NumFrames	NumMarkers	Units	OrigDataRate	OrigDataStartFrame	OrigNumFrames
100.00	100.00	       13	19	mm	100.00	158	       630
Frame#	Time	Headset_Front			Headset_Back			Headset_Left			Headset_Right			Left_Shoulder			Right_Shoulder			Sternum			C7			Left Elbow			Right Elbow			Left Wrist			Right Wrist			Left ASIS			Right ASIS			S2			Left Knee			Right Knee			Left Ankle			Right Ankle			
		X1	Y1	Z1	X2	Y2	Z2	X3	Y3	Z3	X4	Y4	Z4	X5	Y5	Z5	X6	Y6	Z6	X7	Y7	Z7	X8	Y8	Z8	X9	Y9	Z9	X10	Y10	Z10	X11	Y11	Z11	X12	Y12	Z12	X13	Y13	Z13	X14	Y14	Z14	X15	Y15	Z15	X16	Y16	Z16	X17	Y17	Z17	X18	Y18	Z18	X19	Y19	Z19	

158	1.570	-51.82887	1556.77075	845.45435	17.26879	1445.92407	767.02563				-74.72810	1737.40015	696.15717	-202.21245	1533.85510	472.82547	-233.82053	1433.88049	879.06555	-135.86235	1326.22876	670.36334	-322.53918	1549.47192	687.87482	-285.59268	1273.65125	365.85391	-386.70667	1204.67529	960.35754	-90.70290	1192.12085	415.85175	-240.14186	1014.65759	1006.87366	-180.94257	954.09827	504.08194	-162.99025	950.04388	786.16803	-436.45062	1021.68640	600.79468	-290.36893	499.51343	522.22723	-132.90594	533.56982	743.37598	-549.47272	128.19502	599.24231	-164.39703	114.30884	735.22357	
159	1.580	-42.56490	1556.92065	841.73792	25.52099	1446.75757	761.10071				-70.13589	1739.31458	694.31561	-198.94720	1534.86987	473.75269	-226.14320	1434.55591	878.19727	-129.87422	1327.60425	668.72638	-317.08047	1550.42737	689.20270	-284.84082	1274.53284	366.35089	-378.87894	1205.25317	960.76270	-88.50501	1193.11694	413.48984	-230.62921	1015.82800	1002.24902	-175.99451	955.81812	502.77252	-156.96118	950.63739	784.17450	-430.28452	1022.57666	599.48468	-283.68930	500.72806	524.99060	-130.03015	533.90033	745.98840	-547.37714	131.15207	597.82361	-164.55205	114.09970	735.55261	
160	1.590	-33.98524	1557.57043	837.94507	33.24804	1447.66907	755.77869				-65.45719	1740.11743	692.45917	-195.98764	1538.09729	472.02908	-218.28531	1435.80530	877.89923	-124.56980	1328.79932	667.51312	-311.68869	1551.51831	689.56134	-282.25119	1276.07300	366.75299	-371.57330	1206.01636	960.27844	-86.09925	1194.62244	411.34531	-221.09222	1016.93140	997.15088	-170.98816	957.10529	501.94351	-150.61972	950.91876	783.31769	-425.13171	1023.09003	598.95557	-277.24609	502.72919	526.75104	-127.48193	532.91553	747.39258	-544.26556	133.92641	595.78613	-164.64212	114.47181	735.89880	
161	1.600	-25.29375	1557.74048	833.71771	39.34258	1449.02881	748.28351				-61.23168	1741.77209	690.40125	-193.88054	1536.96399	473.04419	-210.78783	1437.24805	877.48962	-119.72019	1330.12671	665.90271	-306.44696	1552.57312	690.82190	-281.44476	1277.98230	366.72275	-362.11490	1207.20166	959.74316	-84.41185	1196.03564	409.23801	-210.18893	1018.20776	991.51898	-166.04759	958.90680	500.68637	-142.95992	951.93628	782.35254	-419.30396	1023.14539	598.07867	-269.96854	505.20303	528.08612	-125.83845	531.88525	749.83148	-541.25604	137.61569	594.36792	-164.58008	114.22507	736.07288	
162	1.610	-16.13493	1557.92114	829.37842	46.64876	1450.24426	741.97833				-55.90059	1742.79578	687.73822	-191.45203	1538.43958	472.20010	-202.23094	1438.53430	877.56500	-114.78539	1330.75647	664.80237	-301.36697	1553.27002	691.96442	-280.52692	1278.52698	366.80197	-353.07587	1207.48877	960.48566	-82.37722	1197.36658	406.75443	-199.86642	1019.61017	986.60553	-162.12138	960.64478	499.02078	-136.74878	952.81598	781.15222	-413.68286	1023.26062	597.64459	-263.56546	506.62888	529.25488	-124.24226	530.51355	752.17810	-537.84521	140.76518	591.85919	-164.38461	113.72330	736.03339	
163	1.620	-7.25288	1558.27454	824.62689	54.11657	1451.34131	735.22748				-51.71346	1744.02710	685.31299	-189.74420	1540.44824	470.12939	-194.48965	1439.67798	877.00342	-108.67746	1331.94763	663.99011	-295.93921	1553.63867	692.51990	-278.73459	1279.14429	366.83203	-343.42661	1207.57458	960.30518	-80.67968	1198.87561	404.28595	-189.86824	1021.36090	982.22363	-157.74834	962.20917	497.88269	-131.04323	953.67645	780.34534	-408.18231	1023.00531	597.54767	-256.69266	510.26837	529.86243	-122.56921	529.19940	754.25452	-534.21069	145.49290	589.43396	-163.86900	113.58200	736.13525	
164	1.630	1.29001	1559.30896	819.48303	60.09441	1452.53162	727.86481				-47.22468	1745.21472	682.56085	-187.68527	1541.27551	469.87439	-186.69318	1440.29407	877.19543	-102.75649	1333.18726	662.06793	-290.94870	1554.27649	693.39984	-277.65994	1280.16382	367.26602	-334.18723	1207.77820	960.65967	-79.29969	1200.18506	401.19028	-178.71170	1022.22412	976.47443	-153.57712	962.97760	496.72577	-123.80025	955.03247	779.11969	-402.81711	1022.56860	597.15369	-246.37276	514.48792	525.23322	-121.69482	527.72363	756.84821	-528.99573	148.74516	586.82538	-163.51085	113.07703	736.54364	
165	1.640	10.05006	1559.64246	814.10645	66.75658	1453.46057	720.03247				-42.83085	1746.24243	679.54822	-186.34180	1541.83777	469.19525	-177.67973	1441.31836	876.60071	-97.94078	1334.15149	660.12524	-285.83194	1554.58105	694.13202	-276.86334	1280.90466	367.60690	-324.10867	1208.41492	961.27710	-77.69186	1201.66614	398.59225	-168.10637	1023.74866	972.17462	-148.92033	964.05792	495.52988	-117.98698	955.42737	778.04425	-398.14233	1022.39398	597.19769	-237.06750	518.06421	519.39587	-121.00127	526.05658	760.09283	-524.65375	154.14410	583.93573	-163.53209	113.01113	736.67664	
166	1.650	18.33398	1560.16968	808.55029	73.62173	1455.47168	713.59131				-39.28395	1747.68604	676.61584	-184.85936	1542.16199	468.19211	-169.15363	1442.79529	874.50775	-93.15352	1334.72644	658.20636	-280.65109	1554.73926	695.30078	-277.14801	1280.95728	367.36722	-314.14328	1208.32275	961.55682	-76.46425	1202.60034	395.54416	-157.12840	1024.83728	966.77393	-144.96780	965.42279	493.71265	-112.29551	955.70819	775.61450	-394.14371	1021.88147	598.03296	-227.56274	520.06207	515.04932	-120.43751	524.45898	762.26379	-518.82532	158.67212	580.25409	-163.67329	113.09281	736.98950	
167	1.660	26.49786	1560.73279	802.77679	78.90549	1455.95752	704.77283				-34.67407	1748.33093	673.25897	-183.50885	1542.37830	467.49625	-160.87573	1443.16113	874.26788	-88.25042	1335.37854	656.16101	-275.54242	1554.97424	696.11395	-276.45688	1281.03503	368.11624	-303.31058	1208.06738	961.89636	-75.24279	1203.58521	392.84515	-145.97134	1025.88184	961.49548	-141.13441	964.92615	492.80536	-105.20744	956.55811	774.14825	-388.25058	1020.79877	598.26495	-216.91089	519.96796	509.86523	-119.41967	523.38562	764.85413	-513.48920	163.63647	576.81940	-163.63918	113.21662	737.58990	
168	1.670	34.15089	1561.38220	796.77051	85.46560	1458.21045	696.81024				-31.46453	1749.61218	670.05920	-182.77765	1541.17261	467.01758	-152.34450	1443.57715	873.03455	-83.71308	1335.94434	654.19873	-270.29599	1555.05701	696.86469	-276.00293	1281.04578	368.63135	-292.53015	1207.72510	962.43903	-74.17196	1204.72534	389.31046	-134.06717	1026.55981	956.04688	-137.44414	965.55817	491.21115	-100.07648	956.92560	773.14447	-383.90158	1020.14172	599.01141	-206.75542	518.74249	504.14685	-119.00835	521.96301	767.00177	-507.18250	169.14555	573.66223	-163.64178	113.19525	737.72339	
169	1.680	41.74161	1562.07678	790.62048	92.33329	1459.27686	689.17694				-27.83597	1750.50452	666.75739	-181.31145	1542.97473	466.21439	-143.56308	1443.71497	871.82355	-79.03241	1336.13965	651.14240	-265.42291	1555.29895	697.88409	-275.52481	1281.28040	368.90750	-281.22632	1207.49609	962.78711	-73.47950	1205.35095	386.84549	-123.27397	1027.80554	950.03522	-133.11485	965.50201	489.85370	-93.67044	957.93176	771.73749	-380.00824	1020.36829	600.10413	-196.76736	517.12311	498.30396	-118.29305	521.50787	769.26660	-501.20313	174.34543	569.89423	-163.35175	113.19112	738.31097	
170	1.690	49.48525	1563.05908	784.10944	97.33705	1460.79041	679.45227				-24.17824	1751.61499	663.24347	-180.03674	1543.40344	465.48007	-135.20844	1444.34363	870.39526	-74.60948	1336.27954	649.16614	-260.28738	1555.03540	698.67047	-275.78836	1281.03137	370.86115	-270.34253	1207.00562	962.79742	-72.55843	1206.25256	383.04108	-111.54428	1027.78857	945.37689	-129.81163	966.23956	488.08820	-88.83296	956.93787	769.93341	-377.42041	1020.83087	601.64465	-185.69345	514.23376	491.78516	-118.31416	520.92627	771.77576	-494.72171	179.86409	566.09509	-163.34235	113.18796	738.39111	
